<svg xmlns="http://www.w3.org/2000/svg" width="96" height="96" viewBox="0 0 96 96">
  <defs>
    <linearGradient id="g" x1="0" x2="1" y1="0" y2="1">
      <stop stop-color="#ff6b8a" offset="0"/>
      <stop stop-color="#ff8aa4" offset="1"/>
    </linearGradient>
  </defs>
  <rect x="8" y="8" width="80" height="80" rx="20" fill="url(#g)"/>
  <text x="48" y="58" font-family="Inter, Arial, sans-serif" font-weight="700" font-size="36" text-anchor="middle" fill="#fff">US</text>
</svg>
<svg xmlns="http://www.w3.org/2000/svg" width="128" height="128" viewBox="0 0 128 128" fill="none">
  <defs>
    <linearGradient id="g" x1="0" y1="0" x2="1" y2="1">
      <stop offset="0%" stop-color="#ff6b8a"/>
      <stop offset="100%" stop-color="#6c5ce7"/>
    </linearGradient>
  </defs>
  <rect rx="28" width="128" height="128" fill="url(#g)"/>
  <g transform="translate(20,22)" fill="#fff">
    <path d="M24 68c-13.255 0-24-10.745-24-24S10.745 20 24 20s24 10.745 24 24-10.745 24-24 24Zm0-12c6.627 0 12-5.373 12-12S30.627 32 24 32 12 37.373 12 44s5.373 12 12 12Z" opacity="0.9"/>
    <path d="M86 68c-13.255 0-24-10.745-24-24S72.745 20 86 20s24 10.745 24 24-10.745 24-24 24Zm0-12c6.627 0 12-5.373 12-12S92.627 32 86 32s-12 5.373-12 12 5.373 12 12 12Z" opacity="0.9"/>
    <path d="M40 56c6-8 16-12 24-12s18 4 24 12" stroke="#fff" stroke-width="8" stroke-linecap="round" fill="none" />
  </g>
</svg>


